<svg xmlns="http://www.w3.org/2000/svg" width="501" height="501" viewBox="0 0 501 501">
    <g fill="none" fill-rule="evenodd">
        <circle cx="250.5" cy="250.5" r="240.5" fill="#D0011B" stroke="#FFF" stroke-width="20"/>
        <g fill="#FFF">
            <path d="M129.113 334.356c.005-2.205 1.368-5.157 3.053-6.6L365.779 127.65c4.195-3.593 7.595-2.034 7.595 3.492v33.084c0 2.205-1.36 5.157-3.045 6.6L132.068 374.83c-1.682 1.44-3.042.82-3.037-1.386l.082-39.088z"/>
            <path d="M166.174 129.782c2.9.006 6.795 1.791 8.687 3.971l198.53 228.821c4.748 5.473 2.693 9.91-4.568 9.91h-28.96c-2.9 0-6.795-1.781-8.687-3.962L127.484 133.656c-1.898-2.188-1.087-3.956 1.815-3.95"/>
        </g>
    </g>
</svg>
